<?xml version="1.0" encoding="UTF-8"?>
<svg version="1.1" xmlns="http://www.w3.org/2000/svg" width="382" height="196">
<path d="M0 0 C0 17.82 0 35.64 0 54 C-3.63432327 52.18283836 -4.81018826 51.35989369 -7.25390625 48.40625 C-11.01126806 43.96764689 -14.94722808 39.72914001 -18.9375 35.5 C-19.62134766 34.77296875 -20.30519531 34.0459375 -21.00976562 33.296875 C-22.67194507 31.53008286 -24.33536639 29.76447952 -26 28 C-24.47396585 24.78369859 -22.90199229 22.71230701 -20.3125 20.25 C-15.59566714 15.65236508 -11.31966708 10.75342596 -7.078125 5.71875 C-6.14226562 4.62046875 -6.14226562 4.62046875 -5.1875 3.5 C-4.62417969 2.8296875 -4.06085938 2.159375 -3.48046875 1.46875 C-2 0 -2 0 0 0 Z " fill="#000000" transform="translate(191,79)"/>
<path d="M0 0 C-4.30150522 5.13812825 -8.80662025 9.9538552 -13.55078125 14.68359375 C-14.25019333 15.38396255 -14.94960541 16.08433136 -15.67021179 16.80592346 C-17.13544009 18.27182762 -18.60191334 19.73648839 -20.06958008 21.19995117 C-22.32685682 23.45182244 -24.57868445 25.7090454 -26.83007812 27.96679688 C-28.25749154 29.39355035 -29.68521465 30.81999406 -31.11328125 32.24609375 C-31.78925858 32.92409531 -32.4652359 33.60209686 -33.16169739 34.30064392 C-33.78291977 34.91871414 -34.40414215 35.53678436 -35.04418945 36.17358398 C-35.59234818 36.72094711 -36.1405069 37.26831024 -36.70527649 37.83226013 C-38 39 -38 39 -39 39 C-38.67 26.46 -38.34 13.92 -38 1 C-25.30838046 0.32759632 -12.70704518 -0.14988651 0 0 Z " fill="#010101" transform="translate(186,76)"/>
<path d="M0 0 C0.66 0 1.32 0 2 0 C3.42993164 1.44018555 3.42993164 1.44018555 5.09765625 3.44921875 C7.70979749 6.52324236 10.38124401 9.49249062 13.18359375 12.39453125 C13.88291016 13.12220703 14.58222656 13.84988281 15.30273438 14.59960938 C16.7488577 16.09865579 18.19952788 17.59332681 19.65429688 19.08398438 C20.68973633 20.16583008 20.68973633 20.16583008 21.74609375 21.26953125 C22.37185303 21.91510986 22.9976123 22.56068848 23.64233398 23.22583008 C25 25 25 25 25 28 C23.55859375 29.91796875 23.55859375 29.91796875 21.4375 32.1875 C20.63183594 33.05503906 19.82617188 33.92257813 18.99609375 34.81640625 C18.53187012 35.30898926 18.06764648 35.80157227 17.58935547 36.30908203 C15.74815507 38.26793825 13.92302145 40.24122554 12.09765625 42.21484375 C10.73231396 43.68540029 9.36642763 45.15545189 8 46.625 C7.3289624 47.34840576 6.6579248 48.07181152 5.96655273 48.81713867 C5.33821533 49.48849854 4.70987793 50.1598584 4.0625 50.8515625 C3.21365234 51.76156006 3.21365234 51.76156006 2.34765625 52.68994141 C1 54 1 54 0 54 C0 36.18 0 18.36 0 0 Z " fill="#000000" transform="translate(192,11)"/>
<path d="M0 0 C3.1300133 1.389292 5.25386617 3.00533553 7.66699219 5.42407227 C8.71762848 6.47009361 8.71762848 6.47009361 9.78948975 7.5372467 C10.53442688 8.28936935 11.27936401 9.041492 12.046875 9.81640625 C13.20367767 10.97389626 13.20367767 10.97389626 14.3838501 12.1547699 C16.01006367 13.78400138 17.63384926 15.41565946 19.25537109 17.04956055 C21.74913373 19.56162737 24.25085368 22.06555244 26.75390625 24.56835938 C28.33120295 26.15056949 29.90804196 27.73323605 31.484375 29.31640625 C32.23740906 30.07055313 32.99044312 30.82470001 33.76629639 31.60169983 C34.45411194 32.29589523 35.14192749 32.99009064 35.85058594 33.70532227 C36.46029236 34.31884048 37.06999878 34.9323587 37.69818115 35.56446838 C39 37 39 37 39 38 C26.61922367 38.11522956 14.3502912 37.89587605 2 37 C1.01147497 32.81723749 0.80326716 28.80286514 0.68359375 24.51171875 C0.66281265 23.80852005 0.64203156 23.10532135 0.62062073 22.3808136 C0.55559885 20.14980183 0.49646224 17.91867931 0.4375 15.6875 C0.39426964 14.16860866 0.35065395 12.64972823 0.30664062 11.13085938 C0.19996666 7.4206888 0.09856779 3.71039579 0 0 Z " fill="#000000" transform="translate(195,78)"/>
<path d="M0 0 C-0.11861184 4.60831791 -0.24288361 9.21643613 -0.37231445 13.82446289 C-0.41552339 15.39082736 -0.45720791 16.95723467 -0.49731445 18.52368164 C-0.55535871 20.7802418 -0.61895302 23.03658908 -0.68359375 25.29296875 C-0.70866249 26.33701118 -0.70866249 26.33701118 -0.73423767 27.40214539 C-0.84627032 31.11110211 -1.26489968 34.32449841 -2 38 C-14.21 38.33 -26.42 38.66 -39 39 C-32.24828202 31.12299569 -32.24828202 31.12299569 -29.3972168 28.26782227 C-28.44174202 27.30761925 -28.44174202 27.30761925 -27.46696472 26.32801819 C-26.80110855 25.66418625 -26.13525238 25.00035431 -25.44921875 24.31640625 C-24.74980667 23.61603745 -24.05039459 22.91566864 -23.32978821 22.19407654 C-21.86455991 20.72817238 -20.39808666 19.26351161 -18.93041992 17.80004883 C-16.67314318 15.54817756 -14.42131555 13.2909546 -12.16992188 11.03320312 C-10.74250846 9.60644965 -9.31478535 8.18000594 -7.88671875 6.75390625 C-6.87275276 5.73690392 -6.87275276 5.73690392 -5.83830261 4.69935608 C-5.21708023 4.08128586 -4.59585785 3.46321564 -3.95581055 2.82641602 C-3.40765182 2.27905289 -2.8594931 1.73168976 -2.29472351 1.16773987 C-1 0 -1 0 0 0 Z " fill="#000000" transform="translate(236,29)"/>
<path d="M0 0 C25.2327943 -0.2005296 25.2327943 -0.2005296 37 1 C37.84647096 9.43989758 38.12756916 17.77098793 38.0625 26.25 C38.05798828 27.38824219 38.05347656 28.52648437 38.04882812 29.69921875 C38.03720214 32.46620409 38.02086431 35.23307158 38 38 C32.94306941 33.76276022 28.19158853 29.33908375 23.53515625 24.66796875 C22.85698349 23.99075272 22.17881073 23.31353668 21.48008728 22.61579895 C20.06126167 21.19764898 18.64367853 19.77825494 17.22729492 18.35766602 C15.04785248 16.17281614 12.86305718 13.99341969 10.67773438 11.81445312 C9.2965538 10.43261264 7.91568298 9.05046246 6.53515625 7.66796875 C5.87902847 7.0138652 5.2229007 6.35976166 4.54689026 5.68583679 C0 1.11498108 0 1.11498108 0 0 Z " fill="#000000" transform="translate(149,28)"/>
<path d="M0 0 C3.26127369 1.52705737 5.46367773 4.05431827 7.90234375 6.6328125 C8.96799968 7.73246143 10.03570887 8.83012432 11.10546875 9.92578125 C11.62431641 10.4573584 12.14316406 10.98893555 12.67773438 11.53662109 C15.13147004 13.98466929 17.75835432 16.21012382 20.43359375 18.41015625 C22.56527076 20.39164693 24.33423944 22.73518211 26.15234375 25.0078125 C8.33234375 25.0078125 -9.48765625 25.0078125 -27.84765625 25.0078125 C-25.14773996 21.63291714 -23.20898628 19.28305754 -20.03515625 16.6328125 C-17.33701943 14.3294031 -14.76842625 11.97891905 -12.28515625 9.4453125 C-9.94710373 7.09124592 -7.60057839 4.75611631 -5.16015625 2.5078125 C-4.62003906 2.0025 -4.07992187 1.4971875 -3.5234375 0.9765625 C-1.84765625 0.0078125 -1.84765625 0.0078125 0 0 Z " fill="#010101" transform="translate(157.84765625,45.9921875)"/>
<path d="M0 0 C17.49 0 34.98 0 53 0 C46.25114387 7.87366548 46.25114387 7.87366548 42.765625 11.11328125 C42.02699219 11.80357422 41.28835937 12.49386719 40.52734375 13.20507812 C39.77582031 13.90052734 39.02429688 14.59597656 38.25 15.3125 C36.73422546 16.72509997 35.21859364 18.13785311 33.703125 19.55078125 C33.03958008 20.16606689 32.37603516 20.78135254 31.69238281 21.4152832 C30.44022434 22.58778185 29.21298267 23.78701733 28 25 C23.91030456 24.80774936 21.94150442 22.21222282 19.25 19.375 C15.64250487 15.64548665 11.99381426 12.1542148 7.984375 8.86328125 C5.0855573 6.14135991 2.58782669 3.01913114 0 0 Z " fill="#000000" transform="translate(199,73)"/>
<path d="M0 0 C0.73089844 0.09023437 1.46179688 0.18046875 2.21484375 0.2734375 C4.0625 0.625 4.0625 0.625 6.0625 1.625 C6.59875 1.295 7.135 0.965 7.6875 0.625 C11.15323481 -0.83425676 14.54972898 -0.7403153 18.0625 0.625 C20.62512099 2.82025225 21.91080417 4.52320306 22.37695312 7.90893555 C22.45631498 10.59630093 22.4112307 13.25088571 22.3125 15.9375 C22.29445312 16.86884766 22.27640625 17.80019531 22.2578125 18.75976562 C22.21084888 21.04924197 22.14519475 23.33658184 22.0625 25.625 C20.4125 25.625 18.7625 25.625 17.0625 25.625 C17.02511719 24.43261719 16.98773438 23.24023438 16.94921875 22.01171875 C16.88355968 20.445281 16.81711232 18.87887616 16.75 17.3125 C16.72744141 16.52681641 16.70488281 15.74113281 16.68164062 14.93164062 C16.6284668 13.7956543 16.6284668 13.7956543 16.57421875 12.63671875 C16.54803467 11.94022217 16.52185059 11.24372559 16.49487305 10.52612305 C15.94096665 8.09062381 15.01964381 7.1380032 13.0625 5.625 C10.92446946 5.70106836 10.92446946 5.70106836 9.0625 6.625 C7.4126993 9.92460141 7.67991639 13.61627884 7.5 17.25 C7.45681641 18.05179688 7.41363281 18.85359375 7.36914062 19.6796875 C7.26298543 21.6612511 7.16223145 23.64310271 7.0625 25.625 C5.4125 25.625 3.7625 25.625 2.0625 25.625 C2.00191406 24.42101562 1.94132812 23.21703125 1.87890625 21.9765625 C1.79450268 20.40102923 1.70985459 18.82550904 1.625 17.25 C1.58568359 16.4559375 1.54636719 15.661875 1.50585938 14.84375 C1.37356596 10.59898779 1.37356596 10.59898779 0.0625 6.625 C-2.85384129 6.3747843 -2.85384129 6.3747843 -5.9375 6.625 C-8.41794315 10.34566472 -8.38131173 13.49040474 -8.5625 17.8125 C-8.60117188 18.56208984 -8.63984375 19.31167969 -8.6796875 20.08398438 C-8.77378216 21.93059199 -8.85672319 23.7777619 -8.9375 25.625 C-10.5875 25.625 -12.2375 25.625 -13.9375 25.625 C-13.9375 17.375 -13.9375 9.125 -13.9375 0.625 C-3.77097006 -0.50461444 -3.77097006 -0.50461444 0 0 Z " fill="#020202" transform="translate(87.9375,153.375)"/>
<path d="M0 0 C1.95231171 2.77828975 2.3203434 4.96127744 2.625 8.3125 C3.615 7.9825 4.605 7.6525 5.625 7.3125 C5.625 9.2925 5.625 11.2725 5.625 13.3125 C4.635 13.3125 3.645 13.3125 2.625 13.3125 C2.625 16.6125 2.625 19.9125 2.625 23.3125 C1.51125 23.291875 0.3975 23.27125 -0.75 23.25 C-4.20715921 23.04869282 -4.20715921 23.04869282 -6.375 24.3125 C-10.55644011 24.70697548 -12.68446048 24.76285186 -16.25 22.4375 C-18.80129256 19.88620744 -19.31285469 19.0271711 -19.625 15.4375 C-19.35137294 12.01716178 -18.66139008 10.78942259 -16.375 8.3125 C-17.035 7.9825 -17.695 7.6525 -18.375 7.3125 C-17.88719512 1.82469512 -17.88719512 1.82469512 -15.5625 -0.5 C-10.36061766 -3.32387899 -5.01807527 -3.56547453 0 0 Z M-11.1875 3.5625 C-11.909375 4.14 -12.63125 4.7175 -13.375 5.3125 C-13.375 5.9725 -13.375 6.6325 -13.375 7.3125 C-9.745 7.6425 -6.115 7.9725 -2.375 8.3125 C-2.90384079 4.25075904 -2.90384079 4.25075904 -5.625 2.875 C-8.45005368 2.0197035 -8.45005368 2.0197035 -11.1875 3.5625 Z M-13.16796875 13.79296875 C-13.56628906 14.29441406 -13.96460938 14.79585937 -14.375 15.3125 C-12.70954661 17.47891665 -12.70954661 17.47891665 -10.375 19.3125 C-7.37698394 19.23937766 -5.90845759 18.73558705 -3.5625 16.875 C-2.17330558 15.37420257 -2.17330558 15.37420257 -2.375 13.3125 C-3.80910368 13.06295995 -5.24760072 12.83857358 -6.6875 12.625 C-7.48800781 12.49738281 -8.28851563 12.36976563 -9.11328125 12.23828125 C-11.47149679 12.08507193 -11.47149679 12.08507193 -13.16796875 13.79296875 Z " fill="#010101" transform="translate(64.375,155.6875)"/>
<path d="M0 0 C3.94010386 1.39545345 4.74858197 2.57258935 6.875 6.1875 C8.48927498 11.65809854 8.06493328 15.47778961 5.8125 20.8125 C3.45101399 23.66256932 1.47464511 24.73041813 -2 26 C-5.875 26.1875 -5.875 26.1875 -9 26 C-9 28.64 -9 31.28 -9 34 C-10.98 34 -12.96 34 -15 34 C-15 23.44 -15 12.88 -15 2 C-9.82672488 -0.58663756 -5.68963626 -0.52415668 0 0 Z M-9 5 C-9 9.95 -9 14.9 -9 20 C-3.80787535 20.45559572 -3.80787535 20.45559572 0.9375 18.875 C2.46849826 16.17323836 2.8757742 14.10564495 3 11 C1.26655125 7.27156036 1.26655125 7.27156036 -2 5 C-4.31 5 -6.62 5 -9 5 Z " fill="#010101" transform="translate(130,154)"/>
<path d="M0 0 C3.46926738 2.31284492 5.40095062 4.4704597 7.8125 7.875 C7.8125 8.865 7.8125 9.855 7.8125 10.875 C5.625 11.1875 5.625 11.1875 2.8125 10.875 C2.049375 10.070625 1.28625 9.26625 0.5 8.4375 C-2.53862825 5.5402033 -4.1150187 4.95715774 -8.1875 4.6640625 C-11.57722731 5.0215728 -13.65803336 6.71569921 -16.1875 8.875 C-17.92784499 12.35568998 -17.77121457 16.07757598 -17.1875 19.875 C-14.97134452 22.91429894 -13.34871831 24.40423582 -9.875 25.8125 C-6.09843835 25.90032702 -2.67372434 25.37133449 0.8125 23.875 C2.3873108 21.90465198 2.3873108 21.90465198 2.8125 19.875 C4.4625 19.875 6.1125 19.875 7.8125 19.875 C6.56999216 24.84503138 5.1122891 27.07513733 0.8125 29.875 C-3.25141504 32.01390265 -6.62477493 32.27523904 -11.1875 31.875 C-16.84412965 29.72548073 -20.88023617 26.54894874 -23.5625 21.0625 C-24.74952932 15.00865049 -23.83306911 9.60848809 -20.54296875 4.41796875 C-15.18519398 -1.68093913 -7.36541884 -2.59955959 0 0 Z " fill="#010101" transform="translate(214.1875,148.125)"/>
<path d="M0 0 C4.47693322 2.39928848 6.10182026 5.86315755 7.8125 10.5 C5.125 10.8125 5.125 10.8125 1.8125 10.5 C1.02875 9.695625 0.245 8.89125 -0.5625 8.0625 C-4.2176255 4.49440129 -6.11950791 4.5 -11.1875 4.5 C-14.1166208 5.70985424 -15.61048609 6.73064813 -17.5 9.25 C-18.80332239 13.51541875 -18.69766419 17.14956538 -17.125 21.3125 C-14.34711571 24.44882098 -12.32166376 24.95781459 -8.1875 25.5 C-3.56532394 24.54052302 -0.84297875 23.48321812 1.8125 19.5 C4.4375 19.3125 4.4375 19.3125 6.8125 19.5 C6.59337133 23.33475164 5.87221606 24.44164113 3.0625 27.1875 C-2.42983258 31.09550588 -6.00758473 32.00232532 -12.6796875 31.17578125 C-17.45994083 29.88764445 -20.76300144 26.78015374 -23.3515625 22.63671875 C-25.00649028 18.40659961 -24.70454672 13.9530649 -24.1875 9.5 C-21.86165314 4.57993933 -18.86606392 2.18768565 -14.1875 -0.5 C-9.16626084 -2.17374639 -4.86517993 -2.06044001 0 0 Z " fill="#010101" transform="translate(35.1875,148.5)"/>
<path d="M0 0 C3 2.125 3 2.125 5 5 C5.0625 8.625 5.0625 8.625 4 12 C1.71346676 14.27606856 0.43590129 14.95433995 -2.796875 15.29296875 C-3.77140625 15.25816406 -4.7459375 15.22335938 -5.75 15.1875 C-7.22726562 15.14689453 -7.22726562 15.14689453 -8.734375 15.10546875 C-9.48203125 15.07066406 -10.2296875 15.03585938 -11 15 C-9.69457904 18.17711495 -9.69457904 18.17711495 -6.875 19.9375 C-2.82908716 20.02545463 0.33567053 18.60939533 4 17 C4 18.98 4 20.96 4 23 C-0.54059563 25.65790964 -3.74072406 26.57373919 -9 26 C-13.96856457 23.85448348 -15.66310701 20.67378598 -18 16 C-18.66 16 -19.32 16 -20 16 C-20 14.02 -20 12.04 -20 10 C-19.01 10 -18.02 10 -17 10 C-16.9175 9.2575 -16.835 8.515 -16.75 7.75 C-15.83227052 4.3849919 -14.69900053 3.17419487 -12 1 C-7.78215533 -1.39391184 -4.64777767 -1.24494045 0 0 Z M-11 7 C-11 7.99 -11 8.98 -11 10 C-8.03 10 -5.06 10 -2 10 C-1.34 8.68 -0.68 7.36 0 6 C-1.16302154 4.61471351 -1.16302154 4.61471351 -4.375 4.8125 C-8.09675391 4.69546147 -8.09675391 4.69546147 -11 7 Z " fill="#010101" transform="translate(327,154)"/>
<path d="M0 0 C3.23547321 1.82659101 5.46675491 4.14217094 7.4375 7.3125 C8.36592282 11.7482979 8.24157324 15.81885782 5.98828125 19.77734375 C3.43291874 23.07432566 1.08220761 25.14558445 -3 26 C-7.93600666 25.97989407 -12.11839883 25.21618383 -16 22 C-18.88868756 17.6171637 -19.56796579 14.20635305 -19 9 C-17.17901954 4.8788337 -14.66608677 2.56626074 -11 0 C-7.1289632 -1.2903456 -3.87801709 -1.07030339 0 0 Z M-11.375 6.6875 C-13.21921807 9.31196417 -13.92169023 10.78929947 -14 14 C-12.59978335 17.54172447 -11.54766224 18.72616888 -8.125 20.4375 C-4.56035677 21.07913578 -3.10166212 20.80930291 0 19 C2.48038907 15.2794164 2.46337203 13.40203429 2 9 C0.58333333 6.41666667 0.58333333 6.41666667 -2 5 C-5.98452984 4.43078145 -8.05493748 4.32850821 -11.375 6.6875 Z " fill="#010101" transform="translate(243,154)"/>
<path d="M0 0 C1.65 0 3.3 0 5 0 C5.05607422 1.78857422 5.05607422 1.78857422 5.11328125 3.61328125 C5.17894032 5.179719 5.24538768 6.74612384 5.3125 8.3125 C5.33505859 9.09818359 5.35761719 9.88386719 5.38085938 10.69335938 C5.41630859 11.45068359 5.45175781 12.20800781 5.48828125 12.98828125 C5.51446533 13.68477783 5.54064941 14.38127441 5.56762695 15.09887695 C6.12741143 17.56022179 6.98883206 18.50365327 9 20 C12.11993606 19.92457659 12.11993606 19.92457659 15 19 C16.6498007 15.70039859 16.38258361 12.00872116 16.5625 8.375 C16.60568359 7.57320312 16.64886719 6.77140625 16.69335938 5.9453125 C16.79951457 3.9637489 16.90026855 1.98189729 17 0 C18.98 0 20.96 0 23 0 C23 8.25 23 16.5 23 25 C20.69 25 18.38 25 16 25 C15.67 25.33 15.34 25.66 15 26 C13.07421875 26.16796875 13.07421875 26.16796875 10.6875 26.1875 C9.90761719 26.20167969 9.12773437 26.21585938 8.32421875 26.23046875 C5.69834599 25.97008809 4.18566189 25.47730239 2 24 C0.13775878 20.99360437 -0.24028051 18.7418797 -0.1953125 15.234375 C-0.18886719 14.34492188 -0.18242187 13.45546875 -0.17578125 12.5390625 C-0.15902344 11.61867187 -0.14226562 10.69828125 -0.125 9.75 C-0.11597656 8.81414062 -0.10695312 7.87828125 -0.09765625 6.9140625 C-0.07413636 4.60911343 -0.04126853 2.3046884 0 0 Z " fill="#010101" transform="translate(141,154)"/>
<path d="M0 0 C1.78488669 2.47138157 2.29102151 4.24419362 2.625 7.25 C0.975 7.25 -0.675 7.25 -2.375 7.25 C-2.705 5.93 -3.035 4.61 -3.375 3.25 C-5.685 3.25 -7.995 3.25 -10.375 3.25 C-10.705 4.24 -11.035 5.23 -11.375 6.25 C-10.53195313 6.50394531 -9.68890625 6.75789062 -8.8203125 7.01953125 C-7.72460938 7.36371094 -6.62890625 7.70789063 -5.5 8.0625 C-4.40945312 8.39894531 -3.31890625 8.73539063 -2.1953125 9.08203125 C0.625 10.25 0.625 10.25 2.625 13.25 C2.98517958 16.63568806 3.00685838 18.5772019 1.3125 21.5625 C-1.32518247 24.20018247 -3.5068206 24.26080497 -7.1875 24.5625 C-11.56885954 24.4897468 -14.11312373 23.2732024 -17.375 20.25 C-18.25 17 -18.25 17 -18.375 14.25 C-16.0625 14 -16.0625 14 -13.375 14.25 C-12.941875 14.91 -12.50875 15.57 -12.0625 16.25 C-10.59450332 18.443526 -10.59450332 18.443526 -8.4140625 18.515625 C-6.39914499 18.50148523 -4.38564894 18.38184583 -2.375 18.25 C-2.705 17.26 -3.035 16.27 -3.375 15.25 C-5.57520861 14.36786949 -5.57520861 14.36786949 -8.1875 13.8125 C-15.08120018 11.89922699 -15.08120018 11.89922699 -17.375 8.25 C-17.875 5.25 -17.875 5.25 -17.375 2.25 C-15.6172253 -0.07277371 -14.21774387 -1.37221827 -11.5625 -2.5625 C-7.15975618 -2.93987804 -3.60708559 -2.65785254 0 0 Z " fill="#020202" transform="translate(185.375,155.75)"/>
<path d="M0 0 C3.16911575 1.81578092 5.55104699 3.81348133 6.875 7.3125 C6.91625 7.869375 6.9575 8.42625 7 9 C4.1875 9.1875 4.1875 9.1875 1 9 C0 8 -1 7 -2 6 C-5.29238472 5.57969557 -7.33957342 5.704546 -10.375 7.0625 C-12.32549909 9.03222099 -12.32549909 9.03222099 -12.4375 12.5 C-12.23698839 15.84998653 -12.23698839 15.84998653 -10.9375 17.9375 C-7.88023824 19.6140629 -5.4093712 19.36528977 -2 19 C-0.97980427 18.0206121 0.02149805 17.02104551 1 16 C4.1875 15.8125 4.1875 15.8125 7 16 C5.64279441 20.44176375 4.00613831 22.61336441 0 25 C-4.74830043 26.3666695 -7.90460293 26.54769853 -12.375 24.3125 C-15.97826718 21.1381932 -17.63488842 19.38220812 -18.875 14.6875 C-19.02575378 10.24026349 -18.18478216 7.85978181 -16 4 C-11.01371102 -0.73697453 -6.66169502 -1.84767768 0 0 Z " fill="#020202" transform="translate(352,154)"/>
<path d="M0 0 C2.45243461 1.90063682 3.62927427 3.25854855 5 6 C5.08342159 7.44848582 5.10732861 8.90070869 5.09765625 10.3515625 C5.09443359 11.20234375 5.09121094 12.053125 5.08789062 12.9296875 C5.07951172 13.81914062 5.07113281 14.70859375 5.0625 15.625 C5.05798828 16.5221875 5.05347656 17.419375 5.04882812 18.34375 C5.03702591 20.56256648 5.02056155 22.78125018 5 25 C3.35 25 1.7 25 0 25 C-0.04898437 23.87980469 -0.09796875 22.75960937 -0.1484375 21.60546875 C-0.22347856 20.13278797 -0.29902582 18.66013293 -0.375 17.1875 C-0.4059375 16.44951172 -0.436875 15.71152344 -0.46875 14.95117188 C-0.67346148 11.18106885 -0.86433827 9.20349259 -3 6 C-5.95746492 5.41654524 -5.95746492 5.41654524 -9 6 C-12.55875648 9.33106353 -12.53522727 13.14701301 -12.6875 17.75 C-12.72166016 18.44738281 -12.75582031 19.14476562 -12.79101562 19.86328125 C-12.87308295 21.57497108 -12.93822919 23.2874576 -13 25 C-14.65 25 -16.3 25 -18 25 C-18 16.75 -18 8.5 -18 0 C-15.66666667 0 -13.33333333 0 -11 0 C-7.51732621 -1.74133689 -3.70113961 -0.86930681 0 0 Z " fill="#020202" transform="translate(299,154)"/>
<path d="M0 0 C2.45243461 1.90063682 3.62927427 3.25854855 5 6 C5.08342159 7.44848582 5.10732861 8.90070869 5.09765625 10.3515625 C5.09443359 11.20234375 5.09121094 12.053125 5.08789062 12.9296875 C5.07951172 13.81914062 5.07113281 14.70859375 5.0625 15.625 C5.05798828 16.5221875 5.05347656 17.419375 5.04882812 18.34375 C5.03702591 20.56256648 5.02056155 22.78125018 5 25 C3.35 25 1.7 25 0 25 C-0.04898437 23.87980469 -0.09796875 22.75960937 -0.1484375 21.60546875 C-0.22347856 20.13278797 -0.29902582 18.66013293 -0.375 17.1875 C-0.4059375 16.44951172 -0.436875 15.71152344 -0.46875 14.95117188 C-0.67346148 11.18106885 -0.86433827 9.20349259 -3 6 C-5.95746492 5.41654524 -5.95746492 5.41654524 -9 6 C-12.55875648 9.33106353 -12.53522727 13.14701301 -12.6875 17.75 C-12.72166016 18.44738281 -12.75582031 19.14476562 -12.79101562 19.86328125 C-12.87308295 21.57497108 -12.93822919 23.2874576 -13 25 C-14.65 25 -16.3 25 -18 25 C-18 16.75 -18 8.5 -18 0 C-15.66666667 0 -13.33333333 0 -11 0 C-7.51732621 -1.74133689 -3.70113961 -0.86930681 0 0 Z " fill="#010101" transform="translate(271,154)"/>
<path d="M0 0 C1.65 0 3.3 0 5 0 C5 2.31 5 4.62 5 7 C6.65 7 8.3 7 10 7 C10 8.65 10 10.3 10 12 C8.35 12 6.7 12 5 12 C5.14076315 13.9587043 5.2877676 15.91696093 5.4375 17.875 C5.55931641 19.51082031 5.55931641 19.51082031 5.68359375 21.1796875 C5.83001703 23.94728971 5.83001703 23.94728971 7 26 C7.99 26.33 8.98 26.66 10 27 C10 28.65 10 30.3 10 32 C7.8125 32.375 7.8125 32.375 5 32 C2.22035538 29.89982406 1.29063114 29.11902524 0 26 C-0.41749795 21.30314803 -0.28985303 16.70206028 0 12 C-1.32 12 -2.64 12 -4 12 C-4 10.35 -4 8.7 -4 7 C-2.68 7 -1.36 7 0 7 C0 4.69 0 2.38 0 0 Z " fill="#020202" transform="translate(362,147)"/>
<path d="M0 0 C1 1 1 1 1.1875 3.4375 C1 6 1 6 -1 8 C-3.5 8.25 -3.5 8.25 -6 8 C-6.66 7.34 -7.32 6.68 -8 6 C-7.75 2.9375 -7.75 2.9375 -7 0 C-4.31633121 -1.3418344 -2.84719317 -0.73004953 0 0 Z " fill="#020202" transform="translate(195,68)"/>
</svg>
